# File created by Blade
# Date/Time:  Tue Apr 07 20:29:34 2015
# Frame Rate: 120.000 fps
#------------------------------------------------------
:FULLY-SPECIFIED
:DEGREES
1033
root 3.836425 33.761497 -4.722626 -6.766173 -0.060994 -18.097396
Spine 6.444383 -2.975269 12.921877
Head 14.646658 -3.299990 9.088457
LeftShoulder -14.089131 41.207638 11.667223
LeftArm 56.343277 17.202225 -73.124816
LeftForeArm -0.122028 -0.000000 19.047617
LeftHand 6.308697 -0.000000 -8.381242
LeftHandThumb1 -26.253704 0.000000 33.147579
RightShoulder -4.377728 -3.947782 -14.073837
RightArm 15.785037 -9.492668 78.402075
RightForeArm 1.428872 -0.000000 23.939113
RightHand 4.445377 -0.000000 8.943342
RightHandThumb1 -24.326973 -0.000000 -32.862282
LeftUpLeg -1.600444 2.220605 11.887195
LeftLeg 18.220302 -0.000000 -0.000000
LeftFoot -4.387198 10.417984 -7.213217
LeftToeBase -13.660078 -0.000000 0.000000
RightUpLeg -93.186912 1.920209 19.067048
RightLeg 103.825087 -0.000000 -0.000000
RightFoot 40.078226 -10.852462 4.543371
RightToeBase 33.761000 -0.000000 -0.000000
1034
root 3.844475 33.759401 -4.720136 -6.725646 -0.055727 -18.200162
Spine 6.389251 -3.089972 13.152661
Head 14.680105 -3.129003 8.803938
LeftShoulder -14.108605 41.198614 11.622787
LeftArm 56.393598 17.454963 -73.071704
LeftForeArm -0.001631 -0.000000 19.160968
LeftHand 6.131169 -0.000000 -8.810667
LeftHandThumb1 -26.253704 0.000000 33.147579
RightShoulder -4.441080 -3.960499 -14.175507
RightArm 15.764358 -9.751913 78.510809
RightForeArm 1.355578 -0.000000 24.188302
RightHand 4.390466 0.000000 9.315168
RightHandThumb1 -24.326973 -0.000000 -32.862282
LeftUpLeg -1.468661 2.526239 11.874097
LeftLeg 17.860877 -0.000000 -0.000000
LeftFoot -4.591998 10.885626 -7.078130
LeftToeBase -13.261703 -0.000000 0.000000
RightUpLeg -93.171219 1.909526 19.103067
RightLeg 103.955645 -0.000000 -0.000000
RightFoot 40.084140 -10.864197 4.559288
RightToeBase 33.718690 -0.000000 -0.000000
1035
root 3.852967 33.748043 -4.717820 -6.692228 -0.061986 -18.297774
Spine 6.337003 -3.228810 13.372660
Head 14.717018 -2.921846 8.551096
LeftShoulder -14.171775 41.202376 11.569030
LeftArm 56.430858 17.678349 -73.071646
LeftForeArm 0.059886 -0.000000 19.272308
LeftHand 5.929473 -0.000000 -9.139218
LeftHandThumb1 -26.253704 0.000000 33.147579
RightShoulder -4.444031 -3.986570 -14.268261
RightArm 15.753433 -9.897504 78.599360
RightForeArm 1.258416 -0.000000 24.418726
RightHand 4.292452 0.000000 9.692032
RightHandThumb1 -24.326973 -0.000000 -32.862282
LeftUpLeg -1.311163 2.703608 11.879333
LeftLeg 17.510899 -0.000000 -0.000000
LeftFoot -4.880177 11.230821 -7.021857
LeftToeBase -12.834343 -0.000000 0.000000
RightUpLeg -93.166981 1.897041 19.132245
RightLeg 104.102445 -0.000000 -0.000000
RightFoot 40.102321 -10.803646 4.553052
RightToeBase 33.746936 -0.000000 -0.000000
1036
root 3.856183 33.727146 -4.715010 -6.661303 -0.086297 -18.410312
Spine 6.287244 -3.361044 13.580672
Head 14.736695 -2.735794 8.349195
LeftShoulder -14.205930 41.177548 11.605143
LeftArm 56.365815 17.876085 -73.187766
LeftForeArm 0.208480 -0.000000 19.419859
LeftHand 5.816804 -0.000000 -9.394670
LeftHandThumb1 -26.253704 0.000000 33.147579
RightShoulder -4.441122 -4.010589 -14.340254
RightArm 15.756468 -10.031767 78.669626
RightForeArm 1.148243 -0.000000 24.635626
RightHand 4.186531 -0.000000 10.013719
RightHandThumb1 -24.326973 -0.000000 -32.862282
LeftUpLeg -1.124731 2.776894 11.936700
LeftLeg 17.135133 -0.000000 -0.000000
LeftFoot -5.309337 11.453466 -7.206384
LeftToeBase -12.312133 -0.000000 0.000000
RightUpLeg -93.175721 1.921869 19.155905
RightLeg 104.269765 -0.000000 -0.000000
RightFoot 40.105479 -10.819265 4.649936
RightToeBase 33.769824 -0.000000 -0.000000
1037
root 3.860389 33.697059 -4.713369 -6.629690 -0.093354 -18.466279
Spine 6.234230 -3.491611 13.695025
Head 14.738884 -2.545375 8.250955
LeftShoulder -14.229752 41.156127 11.670198
LeftArm 56.279809 18.012365 -73.367506
LeftForeArm 0.228805 -0.000000 19.584274
LeftHand 5.683894 0.000000 -9.538439
LeftHandThumb1 -26.253704 0.000000 33.147579
RightShoulder -4.440320 -3.977242 -14.354543
RightArm 15.691821 -10.153608 78.688695
RightForeArm 1.083443 0.000000 24.867433
RightHand 4.031291 -0.000000 10.301224
RightHandThumb1 -24.326973 -0.000000 -32.862282
LeftUpLeg -0.966311 2.763522 11.973604
LeftLeg 16.823268 -0.000000 -0.000000
LeftFoot -5.820866 11.487712 -7.546958
LeftToeBase -11.733733 -0.000000 0.000000
RightUpLeg -93.210369 1.947862 19.111587
RightLeg 104.453725 -0.000000 -0.000000
RightFoot 40.136062 -10.760923 4.619439
RightToeBase 33.711180 -0.000000 -0.000000
1038
root 3.857585 33.659403 -4.713969 -6.589696 -0.124716 -18.561974
Spine 6.186597 -3.615668 13.826759
Head 14.697733 -2.365524 8.199540
LeftShoulder -14.281881 41.131530 11.724810
LeftArm 56.183753 18.115641 -73.527085
LeftForeArm 0.301748 0.000000 19.786988
LeftHand 5.524687 0.000000 -9.682921
LeftHandThumb1 -26.253704 0.000000 33.147579
RightShoulder -4.434723 -3.998993 -14.322391
RightArm 15.695422 -10.149620 78.691008
RightForeArm 0.894946 -0.000000 25.093045
RightHand 3.923704 -0.000000 10.529976
RightHandThumb1 -24.326973 -0.000000 -32.862282
LeftUpLeg -0.836643 2.734705 12.115451
LeftLeg 16.581648 -0.000000 -0.000000
LeftFoot -6.428500 11.248577 -7.998577
LeftToeBase -11.140693 -0.000000 0.000000
RightUpLeg -93.261102 2.019545 19.103345
RightLeg 104.624544 -0.000000 -0.000000
RightFoot 40.196057 -10.727942 4.571721
RightToeBase 33.752011 -0.000000 -0.000000
1039
root 3.853596 33.615592 -4.716855 -6.556472 -0.131683 -18.634361
Spine 6.143929 -3.769518 13.896352
Head 14.649324 -2.213434 8.236858
LeftShoulder -14.339709 41.105547 11.763861
LeftArm 56.091172 18.171561 -73.655905
LeftForeArm 0.207686 0.000000 19.984293
LeftHand 5.478011 -0.000000 -9.777771
LeftHandThumb1 -26.253704 0.000000 33.147579
RightShoulder -4.425993 -3.973218 -14.227134
RightArm 15.694227 -10.156042 78.630839
RightForeArm 0.737163 0.000000 25.252116
RightHand 3.779306 -0.000000 10.666196
RightHandThumb1 -24.326973 -0.000000 -32.862282
LeftUpLeg -0.749794 2.656775 12.263844
LeftLeg 16.430901 -0.000000 -0.000000
LeftFoot -7.107209 10.791571 -8.709968
LeftToeBase -10.531222 -0.000000 0.000000
RightUpLeg -93.321824 2.078082 19.057860
RightLeg 104.805883 -0.000000 -0.000000
RightFoot 40.208255 -10.702394 4.545651
RightToeBase 33.803061 -0.000000 -0.000000
1040
root 3.847054 33.565538 -4.720510 -6.548152 -0.163779 -18.651104
Spine 6.148326 -3.898392 13.862918
Head 14.565578 -2.098899 8.364045
LeftShoulder -14.428277 41.108180 11.787830
LeftArm 56.049856 18.194846 -73.715176
LeftForeArm 0.167994 -0.000000 20.192987
LeftHand 5.472642 -0.000000 -9.870785
LeftHandThumb1 -26.253704 0.000000 33.147579
RightShoulder -4.435772 -3.965726 -14.060326
RightArm 15.755521 -10.156249 78.522473
RightForeArm 0.530347 -0.000000 25.371260
RightHand 3.648993 0.000000 10.697656
RightHandThumb1 -24.326973 -0.000000 -32.862282
LeftUpLeg -0.660193 2.551783 12.393460
LeftLeg 16.361745 -0.000000 -0.000000
LeftFoot -7.835914 10.193750 -9.432034
LeftToeBase -9.813932 -0.000000 0.000000
RightUpLeg -93.357209 2.179479 18.902877
RightLeg 105.021251 -0.000000 -0.000000
RightFoot 40.129493 -10.420021 4.508300
RightToeBase 33.685504 -0.000000 -0.000000
1041
root 3.836182 33.514365 -4.725424 -6.566809 -0.197357 -18.671669
Spine 6.188351 -4.020093 13.796769
Head 14.462847 -2.003659 8.562442
LeftShoulder -14.492415 41.107079 11.793151
LeftArm 56.037182 18.174883 -73.695769
LeftForeArm 0.046355 0.000000 20.406925
LeftHand 5.438900 -0.000000 -9.703040
LeftHandThumb1 -26.253704 0.000000 33.147579
RightShoulder -4.414260 -3.933662 -13.830501
RightArm 15.767025 -10.079906 78.382209
RightForeArm 0.320241 -0.000000 25.481457
RightHand 3.602944 -0.000000 10.709228
RightHandThumb1 -24.326973 -0.000000 -32.862282
LeftUpLeg -0.604769 2.461515 12.566931
LeftLeg 16.432560 -0.000000 -0.000000
LeftFoot -8.765297 9.331783 -10.607621
LeftToeBase -8.507212 -0.000000 0.000000
RightUpLeg -93.362631 2.293386 18.768360
RightLeg 105.190106 -0.000000 -0.000000
RightFoot 40.133990 -10.278198 4.431377
RightToeBase 33.732894 -0.000000 -0.000000
1042
root 3.823589 33.461029 -4.732392 -6.613949 -0.238117 -18.641469
Spine 6.280213 -4.133180 13.639663
Head 14.321063 -1.946157 8.834026
LeftShoulder -14.576045 41.138037 11.754787
LeftArm 56.084854 18.101201 -73.581234
LeftForeArm -0.042555 -0.000000 20.613162
LeftHand 5.519354 -0.000000 -9.561832
LeftHandThumb1 -26.253704 0.000000 33.147579
RightShoulder -4.396179 -3.814163 -13.571420
RightArm 15.707765 -10.000518 78.255910
RightForeArm 0.148207 -0.000000 25.563981
RightHand 3.546762 -0.000000 10.659219
RightHandThumb1 -24.326973 -0.000000 -32.862282
LeftUpLeg -0.582161 2.389867 12.707538
LeftLeg 16.641716 -0.000000 -0.000000
LeftFoot -9.779098 8.443862 -11.843187
LeftToeBase -6.933196 -0.000000 0.000000
RightUpLeg -93.340832 2.410153 18.603884
RightLeg 105.336682 -0.000000 -0.000000
RightFoot 40.160709 -10.164886 4.368251
RightToeBase 33.775469 -0.000000 -0.000000
